<?xml version="1.0" encoding="UTF-8"?>
<svg id="Capa_1" data-name="Capa 1" xmlns="http://www.w3.org/2000/svg" viewBox="0 0 1080 1080">
  <defs>
    <style>
      .cls-1 {
        fill: #002e51;
      }
    </style>
  </defs>
  <path class="cls-1" d="M0,88.65c8.41-18.26,22.83-23.81,42.47-23.52,58.01,.87,116.04,.3,174.07,.32,23.7,0,34.03,8.09,39.24,30.9,6.24,27.36,12.8,54.67,18.2,82.2,1.99,10.12,4.99,13.85,16.37,13.83,249.33-.44,498.65-.34,747.98-.33,3.16,0,6.33-.08,9.49,.03,22.73,.78,36.89,19,30.74,41.04-17.42,62.47-35.35,124.8-53.16,187.16-23.69,82.92-47.44,165.82-71.22,248.71-6.41,22.33-16.06,29.44-39.6,29.44-185.32,0-370.65,0-555.97,0-25.24,0-39.95,11.68-39.94,31.68,.02,19.98,14.72,31.62,39.99,31.62,184.97,0,369.94,0,554.92,0,25.41,0,39.99,11.48,40.07,31.53,.08,20.15-14.46,31.76-39.81,31.77-13.01,0-26.01,0-39.36,.65,26.13,5.93,47.65,18.98,62.62,41.17,15.04,22.28,19.75,47.08,14.27,73.41-8.89,42.7-48.87,74.67-92.67,74.61-43.86-.06-83.67-32.19-92.64-74.72-8.16-38.69,7.51-94.62,75.15-114.4H426.33c29.08,5.86,50.6,18.92,65.58,41.11,15.03,22.28,19.74,47.09,14.25,73.41-8.89,42.7-48.89,74.67-92.68,74.6-43.9-.08-83.65-32.16-92.63-74.73-8.16-38.68,7.5-94.62,72.74-115.11-13.68,0-27.36,.28-41.03-.05-38.12-.93-67.49-17.05-86.01-50.97-24.39-44.67-7.3-102.1,37.64-126.38,5.98-3.23,8.27-5.68,6.54-13.42-37.11-165.69-73.82-331.46-110.36-497.28-1.56-7.06-4.63-8.39-11.26-8.35-48.88,.3-97.77-.46-146.63,.47-19.64,.37-34.1-5.2-42.47-23.52v-16.88Z"/>
</svg>