<?xml version="1.0" encoding="UTF-8"?>
<svg id="Capa_1" data-name="Capa 1" xmlns="http://www.w3.org/2000/svg" viewBox="0 0 1080 1080">
  <defs>
    <style>
      .cls-1 {
        fill: #002e51;
      }
    </style>
  </defs>
  <path class="cls-1" d="M504.7,1080.01h-18.97c-147.23-24.2-292.68-57.6-439.18-85.53-6.91-1.32-13.83-2.83-20.15-5.99-14.62-7.32-25.11-17.79-26.06-35.35-.21-3.86-.31-7.71-.31-11.57C.03,643.79,.03,346,0,48.21c0-5.28,.18-10.51,1.2-15.7C4.34,16.54,17.06,4.01,33.13,1.48,40.05,.39,47.04-.01,54.09-.01c235.63,.07,471.26,.05,706.9,.05,35.36,0,52.47,16.73,52.52,51.98,.13,86.39,.03,172.77,.06,259.16,0,19.26-6.63,35.15-23.44,45.48-25.95,15.96-59.86,3.57-70.01-25.25-3.08-8.74-3.8-17.77-3.79-26.98,.05-63.91,.04-127.82,.02-191.74q0-17.69-17.36-17.73c-102.89-.01-205.78,0-308.67-.02-5.93,0-11.89,.35-17.74-.91,32.8,8.78,65.14,19.16,97.7,28.76,13.13,3.87,26.29,7.68,39.19,12.31,21.61,7.75,33.39,23.81,34.26,46.84,.19,4.91,.09,9.83,.09,14.75,0,227.2,0,454.41,0,681.61q0,19.27,18.8,19.28c44.95,0,89.9,0,134.85,0q18.87,0,18.89-19.37c0-62.86,0-125.72,0-188.58,0-7.74,.2-15.43,1.93-23.04,5.98-26.33,26.31-41.01,53.42-38.47,22.75,2.13,41.53,23.19,41.72,48.01,.41,51.97,.12,103.94,.14,155.92,.01,35.12-1.27,70.29,.38,105.33,1.5,32.02-22.33,56.58-55.23,55.78-65.98-1.62-132.03-.5-198.05-.47-16.65,0-16.78,.19-16.83,17.2-.02,6.67,.05,13.34-.03,20.02-.33,28.88-11.78,43.53-39.1,50.09Z"/>
  <path class="cls-1" d="M1080,504.71c-4.49,12.83-12.92,22.71-22.48,32.16-41.69,41.24-83,82.86-124.52,124.27-13.68,13.65-30.07,18.06-48.26,11.37-17.27-6.34-27.19-19.51-29.22-37.83-1.56-14.03,3.22-26.23,13.22-36.27,16.36-16.41,32.74-32.81,49.17-49.16,2.38-2.37,5.04-4.46,9.91-8.73-6.9,0-10.26,0-13.63,0-79.36,0-158.72,.08-238.07-.06-21.85-.04-39.92-14.43-44.58-34.7-4.71-20.46,5.66-41.92,24.7-50.87,7.77-3.65,16.09-4.5,24.61-4.49,77.25,.06,154.5,.03,231.75,.03,3.7,0,7.39,0,14.05,0-20.55-20.45-39.28-38.69-57.54-57.37-18-18.41-18.61-44.53-2.05-62.58,17.74-19.32,46.06-19.93,65.58-.84,22.84,22.34,45.26,45.12,67.85,67.71,18.38,18.37,36.54,36.96,55.2,55.04,10.09,9.78,19.24,20.01,24.31,33.33v18.97Z"/>
</svg>