<?xml version="1.0" encoding="UTF-8"?>
<svg id="Capa_1" data-name="Capa 1" xmlns="http://www.w3.org/2000/svg" viewBox="0 0 1080 1080">
  <defs>
    <style>
      .cls-1 {
        fill: #002e51;
      }
    </style>
  </defs>
  <path class="cls-1" d="M1080,322.95c-9.45,31.07-34.14,50.4-55.73,72.02-141.86,142-283.88,283.85-425.71,425.89-23.29,23.33-49.9,33.04-82.28,23.1-12.39-3.8-22.67-11.06-31.69-20.08C331.18,670.55,177.7,517.3,24.54,363.73c-39.65-39.76-29.93-100.68,19.57-124.05,26.22-12.37,51.99-9.2,75.73,7.49,5.7,4.01,10.78,9.02,15.74,13.97,131.78,131.71,263.59,263.38,395.03,395.42,8,8.04,11.62,7.08,19.06-.39,131.99-132.48,264.34-264.62,396.5-396.93,22.98-23.01,49.55-32.84,81.37-22.68,24.3,7.76,40.43,24.29,48.62,48.62,1.16,3.45,.46,7.71,3.84,10.35v27.42Z"/>
</svg>