<?xml version="1.0" encoding="UTF-8"?>
<svg id="Capa_1" data-name="Capa 1" xmlns="http://www.w3.org/2000/svg" viewBox="0 0 1080 1080">
  <defs>
    <style>
      .cls-1 {
        fill: #002e51;
      }
    </style>
  </defs>
  <path class="cls-1" d="M0,525.12v-23.19c5.96-11.37,12.4-22.08,22.18-31.03C179.81,326.75,337.22,182.37,494.65,38c29.71-27.24,60.5-27.67,90.96-1.02,134.57,117.73,269.14,235.45,403.7,353.2,24.58,21.51,49.44,42.74,73.49,64.83,15.16,13.92,21.58,32.45,14.02,51.72-10.76,27.44-30.76,47.48-58.83,57.98-9.72,3.64-19.28,1.6-27.2-6.18-5.36-5.27-11.31-9.94-18.72-16.37,0,6.06,0,9.77,0,13.48,0,149.68,.03,299.36-.02,449.03-.01,34.28-20.61,57.34-53.4,57.66-66.05,.63-132.11,.36-198.16,.09-18.42-.08-33.23-7.95-42.96-24.08-6.4-10.6-7.37-22.36-7.36-34.48,.12-105.06-.05-210.11,.27-315.17,.03-8.65-1.89-11.12-10.84-11.07-73.08,.39-146.16,.38-219.24,0-8.78-.04-10.97,2.27-10.94,10.96,.31,104.7,.23,209.41,.18,314.11-.02,38.52-21.46,59.8-60.13,59.82-57.62,.03-115.24,.02-172.87,0-40.66,0-61.38-20.84-61.38-61.74,0-150.73,0-301.46-.06-452.2,0-3.59,1.08-7.47-1.38-11.66-10.94,9.77-21.3,19.14-31.78,28.36-21.81,19.17-49.56,19.19-71.55,.25-13.09-11.28-23.94-24.22-30.45-40.44Z"/>
</svg>