<?xml version="1.0" encoding="UTF-8"?>
<svg id="Capa_1" data-name="Capa 1" xmlns="http://www.w3.org/2000/svg" viewBox="0 0 1080 1080">
  <defs>
    <style>
      .cls-1 {
        fill: #002e51;
      }
    </style>
  </defs>
  <path class="cls-1" d="M424.03,1062.72c-38.79-35.61-74.81-74.04-112.33-110.94-22.55-22.18-44.8-44.67-67.13-67.07-13.73-13.77-13.9-23.97-.43-37.45,56.24-56.32,112.56-112.55,168.79-168.88,7.14-7.15,14.73-12.1,25.34-7.95,11.04,4.32,13.39,13.36,13.36,23.9-.06,27.55,.21,55.1-.18,82.65-.1,6.86,1.87,8.4,8.52,7.99,147.03-9.09,264.1-73.65,352.39-190.83,53.19-70.59,81.76-150.94,91.54-238.36,.6-5.4,1.11-10.85,2.25-16.15,2.23-10.37,11.46-17.76,21.06-17.34,10.2,.45,18.95,8.87,19.34,20.12,.98,28.18,1.98,56.34-.47,84.58-5.39,62.11-20.42,121.74-45.58,178.63-23.78,53.76-55.38,102.87-94.59,146.63-63.63,71.03-140.04,123.92-229.44,157.73-36.93,13.97-74.88,24.19-113.9,29.98-9.16,1.36-11.35,4.81-11.17,13.56,.57,27.2-.16,54.42,.37,81.62,.25,12.72-3.63,22.13-15.49,27.57h-12.25Z"/>
  <path class="cls-1" d="M528.57,17.28c129.46,4.56,238.98,62.84,316.49,179.29,19.68,29.57,33.89,61.77,44.35,95.66,.94,3.06,3.02,5.99-.08,9.37-12.26,13.39-14.16,30.44-15.94,47.36-1.74,16.59-5.28,32.85-8.02,49.26-.88,5.27-2.88,6.75-7.85,6.56-8.49-.33-17.03-.54-25.5-.01-6.52,.41-7.85-2.19-8-8.18-1.38-55.56-16.62-107.07-46.57-153.94-45.09-70.57-108.4-116.56-190.05-134.93-88.45-19.91-170.8-3.45-244.84,49.29-63.49,45.23-103.86,106.63-120.55,182.74-25.76,117.52,19.04,238.39,118.77,311.1,7.67,5.59,15.67,10.79,23.82,15.65,4.48,2.67,5.88,4.33,1.46,8.65-17.03,16.63-33.91,33.43-50.42,50.57-4.36,4.53-7.07,2.57-10.88-.03-76.52-52.34-130.31-122.18-155.65-211.39-37-130.3-12.4-249.95,72.38-355.36,57.77-71.83,133.9-115.82,224.48-134.1,24.05-4.85,48.47-6.56,82.62-7.56Z"/>
  <path class="cls-1" d="M635.76,445.72c-36.37,0-72.75,.04-109.12-.01-31.85-.04-47.81-15.83-47.83-47.36-.04-64.59-.21-129.18,.08-193.76,.14-31.51,28.89-51.65,56.49-39.74,17.44,7.53,25.34,21.76,25.35,40.52,.03,49.29,.25,98.58-.22,147.87-.08,8.61,2.16,10.46,10.54,10.4,58.47-.4,116.94-.3,175.41-.17,26.3,.06,42.8,13.55,45.71,36.79,2.52,20.19-11.13,39.71-31.1,43.91-5.27,1.11-10.79,1.46-16.19,1.48-36.37,.12-72.75,.06-109.12,.07Z"/>
</svg>