<?xml version="1.0" encoding="UTF-8"?>
<svg id="Capa_1" data-name="Capa 1" xmlns="http://www.w3.org/2000/svg" viewBox="0 0 1080 1080">
  <defs>
    <style>
      .cls-1 {
        fill: #002e51;
      }
    </style>
  </defs>
  <path class="cls-1" d="M1080.43,497.85v86.48c-3.33,1.16-1.99,4.09-2.21,6.27-10.82,108.73-50.28,205.73-119.22,290.59-16.72,20.58-34.73,39.98-55.22,57.73-29.3-153.12-167.52-290.57-346.6-293.53-201.17-3.32-323.8,104.17-381.98,292.18-1.23-1.14-3.33-2.96-5.3-4.92C17.93,781.13-34.79,599.95,21.61,393.49,97.61,115.28,376.86-48.63,658.64,12.89c215.78,47.11,385.27,229.53,415.93,447.29,1.77,12.57,1.35,25.52,5.86,37.67Zm-339.09-127.03c.07-111-89.81-201.26-200.63-201.48-110.62-.21-200.96,90.07-201.11,201-.15,111.01,89.75,201.23,200.62,201.34,110.94,.11,201.05-89.88,201.12-200.86Z"/>
  <path class="cls-1" d="M496.17,1080c-11-4.83-22.99-4.03-34.51-5.74-79.65-11.84-152.95-39.96-220.07-84.43-4.91-3.25-7.2-6.07-6.3-12.53,18.1-129.05,106.17-228.68,231.06-260.98,169.31-43.78,345.82,69.9,376,242.16q4.75,27.09-18.86,41.52c-74,45.32-154.13,71.73-240.77,78.1-1.67,.12-3.57-.33-4.31,1.9h-82.26Z"/>
  <path class="cls-1" d="M678.04,371.05c.23-76.1-61.43-138.23-137.38-138.41-75.41-.18-137.28,61.33-137.76,136.95-.48,76.19,60.97,138.52,136.84,138.79,76.24,.28,138.07-61.12,138.31-137.34Z"/>
  <path class="cls-1" d="M678.04,371.05c-.23,76.22-62.06,137.61-138.31,137.34-75.87-.27-137.32-62.6-136.84-138.79,.48-75.62,62.35-137.13,137.76-136.95,75.94,.18,137.61,62.31,137.38,138.41Z"/>
</svg>